<?xml version="1.0" encoding="utf-8"?>
<!-- Generator: Adobe Illustrator 22.1.0, SVG Export Plug-In . SVG Version: 6.00 Build 0)  -->
<svg version="1.1" id="Layer_1" xmlns="http://www.w3.org/2000/svg" xmlns:xlink="http://www.w3.org/1999/xlink" x="0px" y="0px"
	 viewBox="0 0 439 433" style="enable-background:new 0 0 439 433;" xml:space="preserve">
<style type="text/css">
	.st0{fill:#0083C6;}
	.st1{fill:#2D9C5C;}
	.st2{fill:#E92A35;}
</style>
<g>
	<polygon class="st0" points="0.8,216.8 55.7,161.9 86.4,192.1 75.8,202.7 57.2,183.5 47.1,193.6 65.2,212.2 55.2,222.8 36.5,204.2 
		22.9,217.8 42.1,236.9 31.5,247 	"/>
	<polygon class="st0" points="97.5,203.2 111.1,217.3 91.4,258.6 91.4,258.6 122.2,227.9 133.7,239.4 78.3,294.3 65.8,281.2 
		84.9,238.9 54.2,270.2 42.6,258.6 	"/>
	<polygon class="st0" points="234.5,340.2 248.1,353.8 227.9,395.1 227.9,395.1 258.7,364.4 270.2,375.9 215.3,430.8 202.2,417.7 
		221.9,375.4 190.7,406.7 179.1,395.1 	"/>
	<path class="st0" d="M90.4,306.4l54.9-55.4l11.6,11.6c13.1,13.1,20.6,23.2,8.6,35.3c-7.6,7.6-13.6,10.1-22.2,4l-0.5,0.5
		c6.5,6.6,5,11.6-3,19.6l-8.6,8.6c-2.5,2.5-5.5,6-6,10.1l-11.6-11.6c0.5-4,3.5-7.6,6-9.6l9.6-9.6c4-4,1-11.6-1.5-13.6l-2-2.5
		L102,317.5L90.4,306.4L90.4,306.4z M133.7,285.8c6,6,11.6,7.6,17.1,2c5.5-5,4-10.6-2-17.1L133.7,285.8L133.7,285.8z"/>
	<path class="st0" d="M183.6,367.9c-13.1,13.1-25.2,8.1-33.2,0c-7.6-7.6-12.6-19.6,0.5-33.2l23.7-23.2c13.1-13.1,25.2-8.6,33.2-0.5
		c7.6,8.1,12.6,20.1-0.5,33.2L183.6,367.9L183.6,367.9z M159.4,349.2c-2.5,2.5-2.5,6.6,0.5,9.6c2.5,3,7.1,2.5,9.1,0.5l29.7-29.7
		c2.5-2,2.5-6.5-0.5-9.1c-2.5-3-7.1-3-9.1-0.5L159.4,349.2L159.4,349.2z"/>
	<polygon class="st0" points="429.4,216.8 373.5,160.9 373.5,160.9 260.2,273.7 271.8,285.3 373.5,183.5 406.7,216.8 258.7,364.4 
		270.2,375.9 	"/>
	<polygon class="st1" points="271.8,285.3 237.5,250.5 350.3,137.7 350.3,137.7 294.4,81.3 181.1,194.6 192.7,206.2 294.4,104.5 
		327.2,137.7 214.3,250.5 214.3,250.5 260.2,296.9 	"/>
	<polygon class="st2" points="192.7,206.2 157.9,171.4 271.3,58.6 215.3,2.2 215.3,2.2 55.7,161.9 67.3,173 215.3,25.4 248.1,58.6 
		135.3,171.4 181.1,217.3 	"/>
	<path class="st0" d="M422.3,288.3c-6.5,0-11.6-5-11.6-12.1c0-7,5-12.1,11.6-12.1c6,0,11.1,5,11.1,12.1
		C433.4,283.3,428.4,288.3,422.3,288.3L422.3,288.3z M422.3,291.3c8.1,0,15.1-7,15.1-15.1c0-8.6-7.1-15.1-15.1-15.1
		c-8.6,0-15.1,6.5-15.1,15.1C407.2,284.3,413.8,291.3,422.3,291.3L422.3,291.3z M416.3,284.8h3v-7.6h2l4.5,7.6h3l-4.5-7.6
		c3-0.5,4.5-2,4.5-4.5c0-3.5-2-5-6-5h-6.5L416.3,284.8L416.3,284.8z M419.3,270.2h3c1.5,0,3.5,0,3.5,2c0,2.5-1.5,2.5-3.5,2.5h-3
		V270.2L419.3,270.2z"/>
</g>
</svg>
