<svg width="19" height="19" viewBox="0 0 19 19" fill="none" xmlns="http://www.w3.org/2000/svg">
  <path d="M7.80415 14.2304C9.42243 14.2304 10.8936 13.6583 12.0411 12.6902L17.1902 17.824C17.3079 17.9413 17.455 18 17.6168 18C17.7786 18 17.9258 17.9413 18.0435 17.824C18.2788 17.5893 18.2788 17.2079 18.0435 16.9733L12.8944 11.8395C13.8506 10.6954 14.4391 9.21398 14.4391 7.61518C14.4391 3.9629 11.4673 1 7.80415 1C4.15566 1 1.16919 3.97757 1.16919 7.61518C1.16919 11.2675 4.15566 14.2304 7.80415 14.2304ZM7.80415 2.20276C10.8053 2.20276 13.2327 4.63762 13.2327 7.61518C13.2327 10.6074 10.8053 13.0276 7.80415 13.0276C4.80297 13.0276 2.37555 10.5928 2.37555 7.61518C2.37555 4.63762 4.81768 2.20276 7.80415 2.20276Z" fill="#1A263F" fill-opacity="0.76"/>
  <path d="M7.80415 14.4804C9.40037 14.4804 10.8603 13.9435 12.0243 13.0265L17.0137 18.001C17.1792 18.166 17.3901 18.25 17.6168 18.25C17.8435 18.25 18.0545 18.166 18.22 18.001C18.5533 17.6686 18.5533 17.1286 18.22 16.7962L13.2304 11.8215C14.1367 10.6612 14.6891 9.19392 14.6891 7.61518C14.6891 3.82412 11.6047 0.75 7.80415 0.75C4.01829 0.75 0.919189 3.83879 0.919189 7.61518C0.919189 11.4066 4.01865 14.4804 7.80415 14.4804ZM7.80415 2.45276C10.6675 2.45276 12.9827 4.77595 12.9827 7.61518C12.9827 10.4686 10.668 12.7776 7.80415 12.7776C4.94078 12.7776 2.62555 10.4544 2.62555 7.61518C2.62555 4.77639 4.95505 2.45276 7.80415 2.45276Z" stroke="#1A263F" stroke-opacity="0.76" stroke-width="0.5"/>
</svg>
